<svg width="202" height="44" viewBox="0 0 202 44" fill="none" xmlns="http://www.w3.org/2000/svg">
<rect width="43.4334" height="43.4334" rx="7.58362" fill="#3B38FF"/>
<rect x="10.3963" y="13.9512" width="22.6044" height="14.2206" rx="1.59186" fill="white" fill-opacity="0.6"/>
<g filter="url(#filter0_d_8_9)">
<path d="M22.7756 30.4244C22.1772 31.2738 20.9142 31.2624 20.3312 30.4024L10.6111 16.0628C9.93893 15.0712 10.6564 13.7327 11.8543 13.7435L31.5517 13.9212C32.7496 13.932 33.4428 15.2833 32.7529 16.2626L22.7756 30.4244Z" fill="white"/>
</g>
<path d="M70.959 31.6201H67.5391V22.511C67.5391 21.0187 67.2697 19.9202 66.7308 19.2155C66.2127 18.4901 65.4562 18.1274 64.4613 18.1274C63.9846 18.1274 63.5079 18.2207 63.0312 18.4072C62.5545 18.5937 62.0985 18.8632 61.6633 19.2155C61.2488 19.5471 60.8757 19.9513 60.5441 20.428C60.2125 20.884 59.9637 21.3918 59.7979 21.9514V31.6201H56.3781V8.925H59.7979V18.6248C60.4197 17.5056 61.2591 16.6351 62.3162 16.0133C63.3939 15.3916 64.5649 15.0807 65.8292 15.0807C66.8448 15.0807 67.6739 15.2672 68.3164 15.6403C68.9796 15.9926 69.5081 16.4693 69.9019 17.0704C70.2957 17.6714 70.5652 18.3761 70.7102 19.1844C70.8761 19.972 70.959 20.8114 70.959 21.7027V31.6201ZM82.2344 31.931C80.9494 31.931 79.7887 31.703 78.7524 31.247C77.7368 30.7911 76.8663 30.1797 76.1409 29.4128C75.4155 28.6459 74.8559 27.7547 74.4621 26.7391C74.0683 25.7028 73.8714 24.625 73.8714 23.5058C73.8714 22.3866 74.0683 21.3192 74.4621 20.3036C74.8559 19.2673 75.4155 18.3658 76.1409 17.5989C76.887 16.832 77.7679 16.2206 78.7835 15.7646C79.8198 15.3086 80.9701 15.0807 82.2344 15.0807C83.4987 15.0807 84.6386 15.3086 85.6542 15.7646C86.6905 16.2206 87.5714 16.832 88.2968 17.5989C89.0429 18.3658 89.6129 19.2673 90.0067 20.3036C90.4005 21.3192 90.5974 22.3866 90.5974 23.5058C90.5974 24.625 90.4005 25.7028 90.0067 26.7391C89.6129 27.7547 89.0429 28.6459 88.2968 29.4128C87.5714 30.1797 86.6905 30.7911 85.6542 31.247C84.6386 31.703 83.4987 31.931 82.2344 31.931ZM77.3845 23.5369C77.3845 24.3245 77.5088 25.0499 77.7575 25.7132C78.0062 26.3764 78.3482 26.9567 78.7835 27.4542C79.2187 27.9309 79.7265 28.3143 80.3068 28.6045C80.9079 28.8739 81.5504 29.0086 82.2344 29.0086C82.9183 29.0086 83.5505 28.8739 84.1308 28.6045C84.7319 28.3143 85.25 27.9205 85.6853 27.4231C86.1205 26.9256 86.4625 26.3453 86.7112 25.6821C86.9599 25.0188 87.0843 24.2934 87.0843 23.5058C87.0843 22.739 86.9599 22.0239 86.7112 21.3607C86.4625 20.6767 86.1205 20.086 85.6853 19.5886C85.25 19.0912 84.7319 18.7077 84.1308 18.4383C83.5505 18.1481 82.9183 18.003 82.2344 18.003C81.5711 18.003 80.939 18.1481 80.3379 18.4383C79.7576 18.7285 79.2498 19.1223 78.8146 19.6197C78.3793 20.1171 78.027 20.7078 77.7575 21.3918C77.5088 22.055 77.3845 22.7701 77.3845 23.5369ZM97.6238 31.6201L91.4059 15.3605H94.919L99.5824 28.7288L104.277 15.3605H107.51L101.292 31.6201H97.6238ZM116.756 31.931C115.491 31.931 114.341 31.7134 113.305 31.2781C112.269 30.8222 111.377 30.2107 110.631 29.4439C109.906 28.677 109.336 27.7858 108.921 26.7702C108.528 25.7546 108.331 24.6769 108.331 23.5369C108.331 22.397 108.528 21.3192 108.921 20.3036C109.336 19.2673 109.906 18.3658 110.631 17.5989C111.377 16.8113 112.269 16.1999 113.305 15.7646C114.341 15.3086 115.502 15.0807 116.787 15.0807C118.051 15.0807 119.191 15.3086 120.207 15.7646C121.243 16.2206 122.124 16.832 122.849 17.5989C123.575 18.345 124.124 19.2259 124.497 20.2415C124.891 21.2363 125.088 22.283 125.088 23.3815C125.088 23.6302 125.077 23.8685 125.057 24.0965C125.036 24.3038 125.015 24.48 124.994 24.625H111.968C112.03 25.3505 112.196 26.0033 112.465 26.5837C112.756 27.164 113.118 27.6718 113.554 28.107C114.01 28.5216 114.517 28.8428 115.077 29.0708C115.657 29.2988 116.258 29.4128 116.88 29.4128C117.336 29.4128 117.782 29.361 118.217 29.2573C118.673 29.133 119.087 28.9672 119.461 28.7599C119.834 28.5319 120.165 28.2625 120.455 27.9516C120.746 27.6407 120.974 27.2987 121.139 26.9256L124.062 27.7651C123.502 28.9879 122.569 29.9931 121.264 30.7807C119.979 31.5476 118.476 31.931 116.756 31.931ZM121.699 22.2623C121.637 21.5783 121.461 20.9462 121.17 20.3658C120.901 19.7855 120.549 19.2984 120.113 18.9046C119.678 18.4901 119.17 18.1689 118.59 17.9409C118.01 17.7129 117.398 17.5989 116.756 17.5989C116.113 17.5989 115.502 17.7129 114.922 17.9409C114.362 18.1689 113.864 18.4901 113.429 18.9046C112.994 19.2984 112.642 19.7855 112.372 20.3658C112.103 20.9462 111.937 21.5783 111.875 22.2623H121.699ZM137.017 18.3139C135.691 18.3554 134.51 18.6663 133.473 19.2466C132.458 19.8062 131.732 20.6145 131.297 21.6716V31.6201H127.877V15.3605H131.048V18.9979C131.608 17.8787 132.333 16.9875 133.225 16.3242C134.137 15.6403 135.111 15.2672 136.147 15.205C136.354 15.205 136.52 15.205 136.644 15.205C136.789 15.205 136.914 15.2154 137.017 15.2361V18.3139ZM147.433 31.931C146.169 31.931 144.987 31.5994 143.889 30.9362C142.79 30.2729 141.93 29.4231 141.308 28.3868V31.6201H139.878V8.925H141.433V18.9668C142.2 17.8476 143.101 16.9356 144.138 16.231C145.195 15.5263 146.407 15.1739 147.775 15.1739C148.915 15.1739 149.941 15.4226 150.853 15.9201C151.786 16.3968 152.563 17.0393 153.185 17.8476C153.827 18.6352 154.314 19.5368 154.646 20.5524C154.998 21.5472 155.174 22.5628 155.174 23.5991C155.174 24.7183 154.977 25.7857 154.584 26.8013C154.19 27.7961 153.641 28.677 152.936 29.4439C152.252 30.19 151.433 30.7911 150.48 31.247C149.547 31.703 148.532 31.931 147.433 31.931ZM147.122 30.532C148.076 30.532 148.946 30.3351 149.734 29.9413C150.521 29.5475 151.195 29.0293 151.754 28.3868C152.335 27.7236 152.78 26.9775 153.091 26.1484C153.423 25.3194 153.589 24.4696 153.589 23.5991C153.589 22.6872 153.433 21.8167 153.122 20.9876C152.832 20.1378 152.407 19.3917 151.848 18.7492C151.309 18.0859 150.656 17.5574 149.889 17.1636C149.143 16.7698 148.314 16.5729 147.402 16.5729C146.718 16.5729 146.075 16.6973 145.474 16.946C144.873 17.174 144.314 17.4849 143.796 17.8787C143.298 18.2725 142.842 18.7285 142.428 19.2466C142.034 19.7648 141.702 20.3036 141.433 20.8633V26.2106C141.495 26.8117 141.723 27.3816 142.117 27.9205C142.511 28.4387 142.977 28.8946 143.516 29.2884C144.075 29.6615 144.676 29.962 145.319 30.19C145.962 30.418 146.563 30.532 147.122 30.532ZM165.692 31.931C164.552 31.931 163.495 31.7134 162.521 31.2781C161.567 30.8222 160.738 30.2107 160.034 29.4439C159.329 28.677 158.78 27.7858 158.386 26.7702C157.992 25.7546 157.795 24.6872 157.795 23.568C157.795 22.4281 157.992 21.3503 158.386 20.3347C158.8 19.3192 159.36 18.4279 160.065 17.6611C160.769 16.8942 161.598 16.2931 162.552 15.8579C163.526 15.4019 164.573 15.1739 165.692 15.1739C166.811 15.1739 167.847 15.4019 168.801 15.8579C169.754 16.2931 170.583 16.8942 171.288 17.6611C172.013 18.4279 172.573 19.3192 172.967 20.3347C173.381 21.3503 173.589 22.4281 173.589 23.568C173.589 24.6872 173.381 25.7546 172.967 26.7702C172.573 27.7858 172.024 28.677 171.319 29.4439C170.614 30.2107 169.775 30.8222 168.801 31.2781C167.847 31.7134 166.811 31.931 165.692 31.931ZM159.35 23.6302C159.35 24.5836 159.516 25.4852 159.847 26.335C160.179 27.164 160.624 27.8894 161.184 28.5112C161.764 29.133 162.438 29.6304 163.205 30.0035C163.972 30.3558 164.79 30.532 165.661 30.532C166.531 30.532 167.35 30.3558 168.117 30.0035C168.884 29.6304 169.557 29.1226 170.138 28.4801C170.718 27.8376 171.174 27.1018 171.506 26.2728C171.837 25.423 172.003 24.5111 172.003 23.5369C172.003 22.5835 171.837 21.6923 171.506 20.8633C171.174 20.0135 170.718 19.2777 170.138 18.6559C169.557 18.0134 168.884 17.5056 168.117 17.1325C167.371 16.7595 166.562 16.5729 165.692 16.5729C164.821 16.5729 164.003 16.7595 163.236 17.1325C162.469 17.5056 161.795 18.0134 161.215 18.6559C160.655 19.2984 160.199 20.0549 159.847 20.9254C159.516 21.7752 159.35 22.6768 159.35 23.6302ZM176.428 15.4537L181.651 22.1379L181.9 22.5732L182.149 22.1379L187.34 15.4537H189.081L182.801 23.568L189.05 31.6201H187.34L182.149 24.967L181.9 24.5629L181.651 24.967L176.459 31.6201H174.749L180.998 23.568L174.718 15.4537H176.428Z" fill="white"/>
<defs>
<filter id="filter0_d_8_9" x="8.76068" y="13.7434" width="25.8577" height="20.4948" filterUnits="userSpaceOnUse" color-interpolation-filters="sRGB">
<feFlood flood-opacity="0" result="BackgroundImageFix"/>
<feColorMatrix in="SourceAlpha" type="matrix" values="0 0 0 0 0 0 0 0 0 0 0 0 0 0 0 0 0 0 127 0" result="hardAlpha"/>
<feOffset dy="1.59186"/>
<feGaussianBlur stdDeviation="0.795929"/>
<feComposite in2="hardAlpha" operator="out"/>
<feColorMatrix type="matrix" values="0 0 0 0 0 0 0 0 0 0 0 0 0 0 0 0 0 0 0.08 0"/>
<feBlend mode="normal" in2="BackgroundImageFix" result="effect1_dropShadow_8_9"/>
<feBlend mode="normal" in="SourceGraphic" in2="effect1_dropShadow_8_9" result="shape"/>
</filter>
</defs>
</svg>
